<svg width="28" height="28" viewBox="0 0 28 28" fill="none" xmlns="http://www.w3.org/2000/svg">
<path d="M19.3758 10.8691C21.814 10.8826 23.1346 10.9913 23.9955 11.8523C24.9809 12.8377 24.9809 14.4228 24.9809 17.593V18.714C24.9809 21.8854 24.9809 23.4705 23.9955 24.4559C23.0113 25.4401 21.425 25.4401 18.2548 25.4401H9.28662C6.11637 25.4401 4.53013 25.4401 3.54588 24.4559C2.5605 23.4694 2.5605 21.8854 2.5605 18.714V17.593C2.5605 14.4228 2.5605 12.8377 3.54588 11.8523C4.40682 10.9913 5.72738 10.8826 8.1656 10.8691" stroke="white" stroke-width="1.68153" stroke-linecap="round"/>
<path d="M13.7707 3.01953V17.5928M13.7707 17.5928L10.4076 13.6692M13.7707 17.5928L17.1338 13.6692" stroke="white" stroke-width="1.68153" stroke-linecap="round" stroke-linejoin="round"/>
</svg>
